# xmcd
#
# Track frame offsets:
#	150
#	19484
#	45128
#	68181
#	85520
#	104758
#	123467
#	142453
#	161186
#
# Disc length: 2386 seconds
#
# Revision: 0
# Processed by: cddbd v1.5.2PL0 Copyright (c) Steve Scherf et al.
# Submitted via: EZCDAudioConverter 2.2.2.1
#
DISCID=80095009
DTITLE=Satélite 23 - Satelite 23
DYEAR=2017
DGENRE=pop
TTITLE0=Fin (feat. Willy Piancioli)
TTITLE1=Aprender a olvidar (feat. dread Mar I - Gillespie)
TTITLE2=La hora del insomnio 
TTITLE3=Secreto paraíso (feat. Emanero - Juliana Gattas - Gillespie)
TTITLE4=Antes que muera la noche (feat. Bambi)
TTITLE5=Antes que llegue el día
TTITLE6=Imágenes paganas (feat. Joaquin Vitola)
TTITLE7=Te vas (feat. Ivan Noble)
TTITLE8=No te tuve (feat. Mike Amigorena)
EXTD=
EXTT0=
EXTT1=
EXTT2=
EXTT3=
EXTT4=
EXTT5=
EXTT6=
EXTT7=
EXTT8=
PLAYORDER=
